<svg xmlns="http://www.w3.org/2000/svg" viewBox="0 0 383 300"><title>Maná do Céu - 01_tigela</title><path fill="#2664AE" fill-rule="evenodd" d="M 97,200 L 104,201 L 104,202 L 110,202 L 110,203 L 114,203 L 114,204 L 125,205 L 125,206 L 163,209 L 163,211 L 159,214 L 159,216 L 155,219 L 155,221 L 152,223 L 152,225 L 148,228 L 148,230 L 144,233 L 143,236 L 140,233 L 137,226 L 134,223 L 134,221 L 132,220 L 131,216 L 129,215 L 129,213 L 127,212 L 125,207 L 119,207 L 119,208 L 117,207 L 116,209 L 118,210 L 119,214 L 121,215 L 122,219 L 124,220 L 124,222 L 126,224 L 126,226 L 122,230 L 117,232 L 117,230 L 115,229 L 112,222 L 107,217 L 107,215 L 105,214 L 105,212 L 103,211 L 103,209 L 101,208 L 101,206 L 99,205 L 97,200 Z M 303,200 L 307,200 L 307,202 L 300,209 L 300,211 L 298,212 L 298,214 L 296,215 L 296,217 L 294,218 L 294,220 L 292,221 L 292,223 L 290,224 L 290,226 L 288,227 L 286,232 L 278,226 L 278,223 L 279,223 L 281,217 L 283,216 L 285,210 L 287,209 L 287,206 L 279,207 L 277,209 L 277,211 L 275,212 L 273,218 L 269,222 L 269,224 L 268,224 L 267,228 L 265,229 L 265,231 L 263,232 L 263,234 L 261,235 L 258,232 L 258,230 L 254,227 L 254,225 L 250,222 L 250,220 L 247,218 L 247,216 L 242,212 L 241,209 L 272,206 L 272,205 L 278,205 L 278,204 L 298,202 L 298,201 L 303,201 L 303,200 Z M 200,214 L 202,214 L 208,220 L 208,222 L 216,229 L 216,231 L 221,235 L 221,237 L 227,242 L 227,244 L 233,249 L 233,251 L 240,258 L 240,259 L 236,259 L 236,260 L 226,260 L 223,257 L 223,255 L 216,249 L 216,247 L 209,241 L 209,239 L 201,232 L 194,239 L 194,241 L 187,247 L 187,249 L 177,258 L 176,261 L 164,261 L 164,260 L 162,260 L 164,258 L 164,256 L 171,250 L 171,248 L 176,244 L 176,242 L 181,238 L 181,236 L 187,231 L 187,229 L 192,225 L 192,223 L 198,218 L 198,216 L 200,214 Z M 200,246 L 202,246 L 202,249 L 201,249 L 201,251 L 199,251 L 196,254 L 194,254 L 194,253 L 199,249 L 200,246 Z"/><path fill="#F1892C" fill-rule="evenodd" d="M 197,9 L 201,9 L 201,11 L 202,11 L 201,16 L 200,16 L 201,32 L 202,32 L 203,36 L 206,38 L 206,40 L 209,43 L 211,43 L 219,51 L 219,53 L 221,54 L 221,56 L 225,62 L 226,70 L 227,70 L 226,81 L 225,81 L 224,87 L 223,87 L 220,95 L 209,106 L 209,108 L 204,112 L 203,115 L 199,115 L 199,113 L 198,113 L 198,108 L 199,108 L 199,105 L 200,105 L 200,102 L 202,99 L 202,94 L 203,94 L 202,77 L 201,77 L 200,73 L 198,72 L 198,70 L 194,67 L 194,65 L 186,58 L 185,54 L 183,53 L 181,43 L 180,43 L 180,36 L 181,36 L 182,28 L 183,28 L 185,22 L 187,21 L 187,19 L 189,18 L 189,16 L 197,9 Z M 162,44 L 164,44 L 166,46 L 166,50 L 165,50 L 166,64 L 167,64 L 168,68 L 171,70 L 171,72 L 181,81 L 181,83 L 184,87 L 184,90 L 185,90 L 184,105 L 183,105 L 180,113 L 172,120 L 169,118 L 170,111 L 171,111 L 169,99 L 166,96 L 166,94 L 154,83 L 154,81 L 151,77 L 151,73 L 150,73 L 150,63 L 151,63 L 152,56 L 153,56 L 154,52 L 156,51 L 156,49 L 162,44 Z M 239,55 L 247,58 L 253,64 L 253,66 L 256,70 L 256,73 L 257,73 L 257,85 L 256,85 L 256,89 L 255,89 L 253,95 L 251,96 L 251,98 L 238,109 L 236,114 L 235,114 L 234,119 L 231,120 L 228,116 L 227,107 L 228,107 L 228,102 L 230,100 L 230,97 L 232,96 L 232,94 L 236,90 L 236,88 L 239,84 L 239,80 L 240,80 L 240,69 L 239,69 L 239,64 L 237,61 L 237,57 L 239,55 Z M 142,117 L 147,119 L 147,122 L 145,124 L 143,124 L 135,129 L 132,129 L 130,131 L 127,131 L 127,132 L 107,136 L 107,137 L 100,138 L 100,139 L 97,139 L 95,141 L 89,142 L 89,143 L 75,149 L 74,151 L 72,151 L 69,156 L 66,156 L 66,154 L 64,152 L 64,147 L 65,147 L 65,144 L 67,143 L 67,141 L 71,137 L 73,137 L 74,135 L 76,135 L 76,134 L 78,134 L 86,129 L 89,129 L 91,127 L 94,127 L 94,126 L 97,126 L 97,125 L 100,125 L 103,123 L 116,121 L 116,120 L 122,120 L 122,119 L 142,118 L 142,117 Z M 260,117 L 270,117 L 270,118 L 279,118 L 279,119 L 296,121 L 296,122 L 304,123 L 304,124 L 316,127 L 320,130 L 323,130 L 326,133 L 333,136 L 338,141 L 339,147 L 340,147 L 340,152 L 337,155 L 337,156 L 335,156 L 334,153 L 330,149 L 328,149 L 327,147 L 325,147 L 325,146 L 323,146 L 315,141 L 309,140 L 307,138 L 304,138 L 304,137 L 301,137 L 298,135 L 294,135 L 294,134 L 286,133 L 286,132 L 283,132 L 280,130 L 276,130 L 276,129 L 271,128 L 269,126 L 263,125 L 263,124 L 259,123 L 259,121 L 258,121 L 258,119 L 260,117 Z M 65,158 L 67,160 L 69,160 L 72,164 L 74,164 L 75,166 L 77,166 L 81,169 L 84,169 L 84,170 L 87,170 L 87,171 L 90,171 L 93,173 L 101,174 L 101,175 L 117,177 L 117,178 L 124,178 L 124,179 L 131,179 L 131,180 L 140,180 L 140,181 L 163,182 L 163,183 L 184,183 L 184,184 L 245,183 L 245,182 L 260,182 L 260,181 L 270,181 L 270,180 L 293,178 L 293,177 L 304,176 L 307,174 L 311,174 L 311,173 L 320,171 L 322,169 L 329,167 L 330,165 L 335,163 L 337,160 L 340,160 L 338,171 L 337,171 L 330,195 L 328,197 L 328,200 L 327,200 L 325,207 L 324,207 L 321,215 L 319,216 L 316,224 L 314,225 L 314,227 L 312,228 L 312,230 L 310,231 L 310,233 L 308,235 L 305,238 L 305,240 L 301,243 L 301,245 L 289,257 L 287,257 L 281,263 L 279,263 L 278,265 L 274,266 L 273,268 L 271,268 L 265,272 L 262,272 L 258,275 L 244,279 L 243,283 L 238,285 L 238,286 L 230,287 L 230,288 L 223,288 L 223,289 L 209,289 L 209,290 L 180,289 L 180,288 L 168,287 L 168,286 L 161,284 L 158,278 L 144,274 L 142,272 L 139,272 L 139,271 L 127,266 L 126,264 L 122,263 L 117,258 L 115,258 L 100,243 L 100,241 L 97,239 L 97,237 L 94,235 L 94,233 L 90,229 L 90,227 L 89,227 L 88,223 L 86,222 L 86,220 L 85,220 L 85,218 L 80,210 L 80,207 L 77,203 L 77,200 L 75,198 L 75,195 L 74,195 L 74,192 L 73,192 L 73,189 L 71,187 L 71,184 L 70,184 L 70,181 L 68,178 L 68,174 L 66,171 L 66,167 L 65,167 L 65,163 L 64,163 L 65,158 Z M 88,191 L 87,192 L 89,194 L 89,197 L 90,197 L 98,215 L 100,216 L 100,218 L 103,221 L 103,223 L 105,224 L 105,226 L 110,230 L 110,232 L 115,237 L 117,237 L 118,239 L 120,239 L 122,241 L 122,239 L 119,235 L 119,232 L 124,227 L 127,226 L 131,235 L 133,236 L 137,246 L 139,247 L 140,251 L 142,251 L 144,249 L 144,247 L 148,244 L 148,242 L 150,240 L 157,233 L 157,231 L 164,224 L 164,222 L 168,219 L 168,217 L 173,213 L 173,211 L 178,207 L 180,202 L 165,202 L 165,201 L 131,199 L 131,198 L 109,196 L 109,195 L 104,195 L 104,194 L 99,194 L 99,193 L 88,191 Z M 315,191 L 305,193 L 305,194 L 288,196 L 288,197 L 280,197 L 280,198 L 251,200 L 251,201 L 224,202 L 224,204 L 227,206 L 227,208 L 231,211 L 231,213 L 235,216 L 235,218 L 239,221 L 239,223 L 243,226 L 243,228 L 247,231 L 247,233 L 250,235 L 250,237 L 254,241 L 257,243 L 257,245 L 263,251 L 264,247 L 266,246 L 266,244 L 267,244 L 268,240 L 270,239 L 276,226 L 280,227 L 285,232 L 281,241 L 283,239 L 285,239 L 288,235 L 290,235 L 292,233 L 292,231 L 297,227 L 297,225 L 299,224 L 299,222 L 301,221 L 303,216 L 305,215 L 305,213 L 306,213 L 306,211 L 307,211 L 307,209 L 308,209 L 310,203 L 312,202 L 313,197 L 316,193 L 316,191 L 315,191 Z M 39,194 L 42,194 L 49,201 L 49,203 L 54,207 L 54,209 L 58,212 L 58,214 L 62,217 L 62,219 L 66,222 L 66,224 L 69,226 L 69,228 L 75,234 L 75,236 L 77,237 L 77,241 L 72,240 L 61,229 L 59,229 L 59,227 L 57,227 L 47,216 L 45,216 L 38,209 L 36,204 L 33,203 L 33,199 L 36,196 L 38,196 L 39,194 Z M 358,197 L 363,197 L 368,202 L 368,206 L 357,217 L 355,217 L 346,227 L 344,227 L 339,233 L 337,233 L 330,240 L 327,243 L 324,243 L 323,239 L 325,238 L 325,236 L 333,228 L 333,226 L 336,224 L 336,222 L 342,217 L 342,215 L 347,211 L 347,209 L 354,203 L 354,201 L 358,197 Z M 201,202 L 191,211 L 191,213 L 178,226 L 178,228 L 171,234 L 171,236 L 166,240 L 166,242 L 163,244 L 163,246 L 158,250 L 158,252 L 152,258 L 152,259 L 156,259 L 156,260 L 170,261 L 170,262 L 186,262 L 191,256 L 200,254 L 211,255 L 217,261 L 239,260 L 239,259 L 244,259 L 244,258 L 250,257 L 249,254 L 239,244 L 239,242 L 234,238 L 234,236 L 226,229 L 226,227 L 221,223 L 221,221 L 213,214 L 213,212 L 203,202 L 201,202 Z M 28,241 L 33,242 L 37,245 L 40,245 L 40,246 L 42,246 L 42,247 L 44,247 L 44,248 L 76,263 L 77,265 L 81,266 L 82,268 L 84,268 L 86,270 L 86,272 L 81,273 L 77,272 L 77,271 L 70,270 L 70,269 L 66,269 L 66,268 L 63,268 L 63,267 L 60,267 L 60,266 L 57,266 L 57,265 L 54,265 L 54,264 L 51,264 L 51,263 L 48,263 L 48,262 L 45,262 L 45,261 L 42,261 L 42,260 L 39,260 L 39,259 L 36,259 L 33,257 L 30,257 L 28,255 L 25,255 L 23,253 L 23,248 L 25,247 L 25,244 L 28,241 Z M 368,243 L 372,243 L 375,246 L 376,251 L 377,251 L 375,256 L 368,258 L 368,259 L 365,259 L 365,260 L 362,260 L 362,261 L 358,261 L 356,263 L 353,263 L 353,264 L 350,264 L 350,265 L 347,265 L 344,267 L 340,267 L 340,268 L 337,268 L 337,269 L 334,269 L 331,271 L 327,271 L 327,272 L 324,272 L 321,274 L 313,275 L 313,271 L 316,270 L 317,268 L 327,264 L 328,262 L 330,262 L 330,261 L 332,261 L 332,260 L 334,260 L 334,259 L 336,259 L 336,258 L 338,258 L 338,257 L 340,257 L 340,256 L 342,256 L 350,251 L 353,251 L 361,246 L 364,246 L 368,243 Z"/><path fill="#080708" fill-rule="evenodd" d="M 168,128 L 187,129 L 187,130 L 191,131 L 195,136 L 200,136 L 201,134 L 203,134 L 207,131 L 213,130 L 213,129 L 220,129 L 221,131 L 225,131 L 226,129 L 234,129 L 234,130 L 238,130 L 238,131 L 244,133 L 247,136 L 247,138 L 244,138 L 244,140 L 249,140 L 249,139 L 252,139 L 255,137 L 265,136 L 265,137 L 270,137 L 270,138 L 275,139 L 280,144 L 292,143 L 292,144 L 298,145 L 302,149 L 309,149 L 309,150 L 312,150 L 312,151 L 320,154 L 324,158 L 322,161 L 317,162 L 315,164 L 307,165 L 307,166 L 291,168 L 291,169 L 284,169 L 284,170 L 265,171 L 265,172 L 233,173 L 227,173 L 231,170 L 231,167 L 228,164 L 224,164 L 224,163 L 218,164 L 215,167 L 216,171 L 220,172 L 217,174 L 184,174 L 184,173 L 142,172 L 142,171 L 116,169 L 116,168 L 109,168 L 109,167 L 94,165 L 94,164 L 83,161 L 82,160 L 83,156 L 85,156 L 86,154 L 93,152 L 95,150 L 109,148 L 110,146 L 112,146 L 116,143 L 127,143 L 128,144 L 133,139 L 135,139 L 136,137 L 139,137 L 139,136 L 152,136 L 153,137 L 158,132 L 165,130 L 165,129 L 168,129 L 168,128 Z M 171,139 L 168,141 L 168,143 L 174,144 L 177,142 L 177,140 L 171,139 Z M 219,141 L 215,143 L 215,146 L 218,148 L 222,148 L 224,148 L 226,146 L 226,143 L 223,141 L 219,141 Z M 188,149 L 185,150 L 185,155 L 189,158 L 194,159 L 197,162 L 200,162 L 200,161 L 202,161 L 204,158 L 203,154 L 195,149 L 188,149 Z M 151,150 L 147,151 L 143,154 L 144,159 L 151,159 L 151,158 L 157,157 L 159,155 L 158,151 L 151,150 Z M 275,151 L 271,152 L 269,154 L 269,156 L 271,158 L 280,160 L 280,161 L 282,161 L 285,159 L 284,154 L 275,151 Z M 242,153 L 240,154 L 239,157 L 244,159 L 244,160 L 249,160 L 252,159 L 252,155 L 249,153 L 242,153 Z M 121,154 L 113,157 L 112,161 L 114,163 L 116,163 L 120,163 L 120,162 L 125,160 L 125,156 L 121,155 L 121,154 Z M 171,161 L 168,163 L 168,165 L 173,166 L 176,165 L 176,163 L 171,161 Z M 201,249 L 202,249 L 202,252 L 209,253 L 209,254 L 205,254 L 203,254 L 203,253 L 197,254 L 199,251 L 201,251 L 201,249 Z"/></svg>